<?xml version="1.0" encoding="UTF-8" standalone="no"?>
<!DOCTYPE svg PUBLIC "-//W3C//DTD SVG 1.1//EN" "http://www.w3.org/Graphics/SVG/1.1/DTD/svg11.dtd">
<svg width="100%" height="100%" viewBox="0 0 1440 1440" version="1.1" xmlns="http://www.w3.org/2000/svg" xmlns:xlink="http://www.w3.org/1999/xlink" xml:space="preserve" xmlns:serif="http://www.serif.com/" style="fill-rule:evenodd;clip-rule:evenodd;stroke-linejoin:round;stroke-miterlimit:2;">
    <g transform="matrix(-0.806782,-0.806782,0.806782,-0.806782,271.122,1602.43)">
        <path d="M676.177,383.566L253.428,383.566C242.316,383.566 231.659,387.981 223.802,395.838C215.945,403.695 211.53,414.352 211.53,425.464C211.53,425.465 211.53,425.466 211.53,425.466C211.53,436.578 215.945,447.235 223.802,455.093C231.659,462.95 242.316,467.364 253.428,467.364C360.578,467.364 636.202,467.364 636.202,467.364L636.202,850.138C636.202,861.25 640.616,871.907 648.474,879.764C656.331,887.622 666.988,892.036 678.1,892.036C678.101,892.036 678.101,892.036 678.102,892.036C689.214,892.036 699.871,887.622 707.728,879.764C715.586,871.907 720,861.25 720,850.138C720,755.149 720,524.185 720,427.389C720,403.186 700.38,383.566 676.177,383.566Z" style="fill:rgb(245,88,71);"/>
    </g>
    <g transform="matrix(0.806782,-0.806782,-0.806782,-0.806782,1189.59,1602.43)">
        <path d="M676.177,383.566L253.428,383.566C242.316,383.566 231.659,387.981 223.802,395.838C215.945,403.695 211.53,414.352 211.53,425.464C211.53,425.465 211.53,425.466 211.53,425.466C211.53,436.578 215.945,447.235 223.802,455.093C231.659,462.95 242.316,467.364 253.428,467.364C360.578,467.364 636.202,467.364 636.202,467.364L636.202,850.138C636.202,861.25 640.616,871.907 648.474,879.764C656.331,887.622 666.988,892.036 678.1,892.036C678.101,892.036 678.101,892.036 678.102,892.036C689.214,892.036 699.871,887.622 707.728,879.764C715.586,871.907 720,861.25 720,850.138C720,755.149 720,524.185 720,427.389C720,403.186 700.38,383.566 676.177,383.566Z" style="fill:rgb(245,88,71);"/>
    </g>
    <g transform="matrix(0.66459,0.178076,-0.509432,1.90123,597.612,-211.546)">
        <path d="M603.287,175.914C603.287,169.473 595.967,163.295 582.936,158.74C569.906,154.185 552.233,151.626 533.805,151.626L533.804,151.626C515.376,151.626 497.703,154.185 484.673,158.74C471.642,163.295 464.322,169.473 464.322,175.914L464.322,695.712C464.322,702.154 471.642,708.331 484.673,712.886C497.703,717.441 515.376,720 533.804,720L533.805,720C552.233,720 569.906,717.441 582.936,712.886C595.967,708.331 603.287,702.154 603.287,695.712L603.287,175.914Z" style="fill:rgb(245,88,71);"/>
    </g>
</svg>
