<?xml version="1.0" encoding="UTF-8" standalone="no"?>
<!DOCTYPE svg PUBLIC "-//W3C//DTD SVG 1.1//EN" "http://www.w3.org/Graphics/SVG/1.1/DTD/svg11.dtd">
<svg width="100%" height="100%" viewBox="0 0 1440 1440" version="1.1" xmlns="http://www.w3.org/2000/svg" xmlns:xlink="http://www.w3.org/1999/xlink" xml:space="preserve" xmlns:serif="http://www.serif.com/" style="fill-rule:evenodd;clip-rule:evenodd;stroke-linecap:round;stroke-linejoin:round;stroke-miterlimit:1.5;">
    <g id="icon" transform="matrix(0.764302,0.764302,-0.754637,0.754637,471.7,-83.0378)">
        <g id="ruller">
            <g transform="matrix(0.948097,0,0,1,7.05592,0)">
                <path d="M1300.03,263.631C1300.03,249.292 1287.9,237.65 1272.97,237.65L163,237.65C148.068,237.65 135.944,249.292 135.944,263.631L135.944,471.474C135.944,485.813 148.068,497.455 163,497.455L1272.97,497.455C1287.9,497.455 1300.03,485.813 1300.03,471.474L1300.03,263.631Z" style="fill:none;stroke:rgb(245,88,71);stroke-width:28.67px;"/>
            </g>
            <g transform="matrix(0.656244,0,0,1.76282,75.8089,-181.284)">
                <rect x="220.531" y="237.65" width="42.294" height="74.517" style="fill:rgb(245,88,71);"/>
            </g>
            <g transform="matrix(0.656244,0,0,1.76282,216.788,-181.284)">
                <rect x="220.531" y="237.65" width="42.294" height="74.517" style="fill:rgb(245,88,71);"/>
            </g>
            <g transform="matrix(0.656244,0,0,1.76282,357.766,-181.284)">
                <rect x="220.531" y="237.65" width="42.294" height="74.517" style="fill:rgb(245,88,71);"/>
            </g>
            <g transform="matrix(0.656244,0,0,1.76282,498.745,-181.284)">
                <rect x="220.531" y="237.65" width="42.294" height="74.517" style="fill:rgb(245,88,71);"/>
            </g>
            <g transform="matrix(0.656244,0,0,1.76282,639.724,-181.284)">
                <rect x="220.531" y="237.65" width="42.294" height="74.517" style="fill:rgb(245,88,71);"/>
            </g>
            <g transform="matrix(0.656244,0,0,1.76282,780.702,-181.284)">
                <rect x="220.531" y="237.65" width="42.294" height="74.517" style="fill:rgb(245,88,71);"/>
            </g>
            <g transform="matrix(0.656244,0,0,1.76282,921.681,-181.284)">
                <rect x="220.531" y="237.65" width="42.294" height="74.517" style="fill:rgb(245,88,71);"/>
            </g>
            <g transform="matrix(0.626414,0,0,1.76282,84.7509,-181.284)">
                <rect x="329.287" y="237.65" width="44.308" height="37.259" style="fill:rgb(245,88,71);"/>
            </g>
            <g transform="matrix(0.626414,0,0,1.76282,225.73,-181.284)">
                <rect x="329.287" y="237.65" width="44.308" height="37.259" style="fill:rgb(245,88,71);"/>
            </g>
            <g transform="matrix(0.626414,0,0,1.76282,366.708,-181.284)">
                <rect x="329.287" y="237.65" width="44.308" height="37.259" style="fill:rgb(245,88,71);"/>
            </g>
            <g transform="matrix(0.626414,0,0,1.76282,507.687,-181.284)">
                <rect x="329.287" y="237.65" width="44.308" height="37.259" style="fill:rgb(245,88,71);"/>
            </g>
            <g transform="matrix(0.626414,0,0,1.76282,648.666,-181.284)">
                <rect x="329.287" y="237.65" width="44.308" height="37.259" style="fill:rgb(245,88,71);"/>
            </g>
            <g transform="matrix(0.626414,0,0,1.76282,789.644,-181.284)">
                <rect x="329.287" y="237.65" width="44.308" height="37.259" style="fill:rgb(245,88,71);"/>
            </g>
            <g transform="matrix(0.626414,0,0,1.76282,930.623,-181.284)">
                <rect x="329.287" y="237.65" width="44.308" height="37.259" style="fill:rgb(245,88,71);"/>
            </g>
        </g>
        <g id="pencil" transform="matrix(1.16416,0,0,1.42477,-112.903,-127.818)">
            <g transform="matrix(1,0,0,1,67.4779,-665.879)">
                <path d="M687.776,731.167C687.776,725.004 681.73,720 674.283,720L566.333,720C558.885,720 552.839,725.004 552.839,731.167L552.839,1283.83C552.839,1289.99 558.885,1294.99 566.333,1294.99L674.283,1294.99C681.73,1294.99 687.776,1289.99 687.776,1283.83L687.776,731.167Z" style="fill:rgb(245,88,71);"/>
            </g>
            <g transform="matrix(1,0,0,0.164623,67.4593,-187.764)">
                <path d="M687.776,777.499C687.776,745.765 682.651,720 676.338,720L564.277,720C557.964,720 552.839,745.765 552.839,777.499L552.839,1237.49C552.839,1269.23 557.964,1294.99 564.277,1294.99L676.338,1294.99C682.651,1294.99 687.776,1269.23 687.776,1237.49L687.776,777.499Z" style="fill:rgb(245,88,71);"/>
            </g>
            <g transform="matrix(-0.956882,1.17184e-16,-1.22465e-16,-1,1033.69,1781.62)">
                <path d="M353.655,979.298C354.807,976.641 357.962,974.857 361.51,974.857C365.058,974.857 368.214,976.641 369.366,979.298C384.489,1014.19 417.133,1089.51 428.224,1115.09C429.095,1117.1 428.686,1119.32 427.127,1121.05C425.568,1122.78 423.051,1123.8 420.368,1123.8L302.652,1123.8C299.969,1123.8 297.452,1122.78 295.893,1121.05C294.334,1119.32 293.926,1117.1 294.797,1115.09C305.887,1089.51 338.532,1014.19 353.655,979.298Z" style="fill:rgb(245,88,71);"/>
            </g>
        </g>
    </g>
</svg>
