<?xml version="1.0" encoding="UTF-8" standalone="no"?>
<!DOCTYPE svg PUBLIC "-//W3C//DTD SVG 1.1//EN" "http://www.w3.org/Graphics/SVG/1.1/DTD/svg11.dtd">
<svg width="100%" height="100%" viewBox="0 0 800 600" version="1.1" xmlns="http://www.w3.org/2000/svg" xmlns:xlink="http://www.w3.org/1999/xlink" xml:space="preserve" xmlns:serif="http://www.serif.com/" style="fill-rule:evenodd;clip-rule:evenodd;stroke-linejoin:round;stroke-miterlimit:2;">
    <g transform="matrix(1.31133,0,0,1.31133,-68.9626,-93.9493)">
        <g transform="matrix(1.30815,0,0,0.786885,-95.2134,53.8356)">
            <rect x="212.028" y="286.993" width="53.706" height="44.476" style="fill:rgb(43,63,125);"/>
        </g>
        <g transform="matrix(0.515053,0.515053,-0.42184,0.42184,362.425,47.0347)">
            <rect x="85.315" y="176.224" width="67.972" height="271.049" style="fill:rgb(43,63,125);"/>
        </g>
        <g transform="matrix(0.515053,-0.515053,0.424936,0.424936,-51.7344,168.542)">
            <rect x="85.315" y="176.224" width="67.972" height="271.049" style="fill:rgb(43,63,125);"/>
        </g>
        <path d="M662.657,165.315L373.638,165.315L373.638,211.469L616.503,211.469L662.657,165.315Z" style="fill:rgb(43,63,125);"/>
        <path d="M381.538,386.853L381.538,165.315L332.028,165.315L332.028,436.364L381.538,386.853Z" style="fill:rgb(43,63,125);"/>
        <g transform="matrix(1,0,0,1,-3.18138,3.69235e-05)">
            <path d="M531.053,386.853L531.053,165.315L481.542,165.315L481.542,436.364L531.053,386.853Z" style="fill:rgb(43,63,125);"/>
        </g>
        <path d="M102.1,164.476L52.59,213.986L52.59,435.524L102.1,386.014L102.1,164.476Z" style="fill:rgb(43,63,125);"/>
    </g>
</svg>
