<?xml version="1.0" encoding="UTF-8" standalone="no"?>
<!DOCTYPE svg PUBLIC "-//W3C//DTD SVG 1.1//EN" "http://www.w3.org/Graphics/SVG/1.1/DTD/svg11.dtd">
<svg width="100%" height="100%" viewBox="0 0 1600 1200" version="1.1" xmlns="http://www.w3.org/2000/svg" xmlns:xlink="http://www.w3.org/1999/xlink" xml:space="preserve" xmlns:serif="http://www.serif.com/" style="fill-rule:evenodd;clip-rule:evenodd;stroke-linejoin:round;stroke-miterlimit:2;">
    <g transform="matrix(4.27335,0,0,4.27335,-3581.42,-2812.08)">
        <path d="M1032.28,938.089C1096.57,938.089 1148.69,926.117 1148.69,911.349C1148.69,896.581 1096.57,884.609 1032.28,884.609C967.988,884.609 915.869,896.581 915.869,911.349C915.869,926.117 967.988,938.089 1032.28,938.089Z" style="fill-opacity:0.2;fill-rule:nonzero;"/>
        <path d="M1099.64,789.74L1113,811.67C1114.71,814.327 1115.31,817.546 1114.69,820.643C1114.06,823.739 1112.25,826.468 1109.64,828.25L1058.72,859.61L1049.79,848.11L1083.23,815.5L1076.42,805.44L1099.64,789.74Z" style="fill:rgb(252,157,157);fill-rule:nonzero;"/>
        <path d="M935.879,789.74L922.539,811.67C920.829,814.326 920.222,817.544 920.848,820.641C921.473,823.737 923.282,826.467 925.889,828.25L978.299,859.61L987.229,848.11L952.299,815.5L959.109,805.44L935.879,789.74Z" style="fill:rgb(252,157,157);fill-rule:nonzero;"/>
        <path d="M1036.28,738.721L999.941,737.461L968.281,743.811C965.748,744.255 963.336,745.226 961.202,746.661C959.068,748.096 957.258,749.963 955.891,752.141L934.221,790.601L958.701,807.111L970.571,789.851L970.571,862.691L1065.38,862.691L1065.38,789.851L1076.05,806.271L1101.05,790.581L1079.9,752.001C1078.5,749.701 1076.6,747.738 1074.36,746.25C1072.11,744.762 1069.57,743.786 1066.9,743.391L1036.24,738.751" style="fill:rgb(33,37,43);fill-rule:nonzero;"/>
        <path d="M998.68,702.301L998.33,737.611C998.324,738.401 998.573,739.173 999.04,739.811L999.36,740.361C1007.75,753.361 1028.26,749.201 1034.86,742.491C1035.4,742.038 1035.82,741.453 1036.07,740.792C1036.31,740.132 1036.39,739.418 1036.28,738.721L1030.38,699.721L998.68,702.301Z" style="fill:rgb(252,157,157);fill-rule:nonzero;"/>
        <path d="M1033.84,686.249C1033.84,686.249 1040.29,728.879 1016.77,730.609C993.771,732.339 993.091,689.239 993.091,689.239L992.471,676.889L1022,671.699L1029.47,675.549L1033.84,686.249Z" style="fill:rgb(252,157,157);fill-rule:nonzero;"/>
        <path d="M1034.39,727.07L1032.66,715.35C1030.54,722.91 1026.13,729.2 1018.42,730.46L1018.5,730.46L1016.85,730.69C1010.71,731.16 1005.6,728.33 1001.75,722.28C1001.68,722.164 1001.56,722.083 1001.43,722.053C1001.3,722.023 1001.16,722.047 1001.04,722.12C1000.93,722.193 1000.84,722.308 1000.81,722.441C1000.78,722.575 1000.81,722.714 1000.88,722.83C1004.97,729.28 1010.4,732.27 1016.88,731.83C1018.24,731.733 1019.58,731.471 1020.88,731.05C1025.73,731.535 1030.58,730.107 1034.39,727.07Z" style="fill-opacity:0.15;fill-rule:nonzero;"/>
        <path d="M1028.26,676.73C1028.26,676.73 1035.73,671.73 1039.26,680.27C1042.26,687.43 1037.26,695.27 1037.26,695.27L1032.94,694.8C1031.13,694.72 1029.87,693.8 1029.71,692.12L1028.26,676.73Z" style="fill:rgb(33,37,43);fill-rule:nonzero;"/>
        <path d="M1033.6,671.541C1034.23,679.641 1027.31,681.771 1024.48,682.001L1001.28,684.001C1000.37,684.085 999.527,684.516 998.925,685.205C998.324,685.894 998.011,686.787 998.05,687.701L998.44,695.091C998.47,695.571 998.316,696.045 998.01,696.416C997.703,696.787 997.268,697.029 996.79,697.091L995.38,697.251L993.8,699.251C984.68,697.051 980.9,671.171 997.66,665.981C999.464,665.399 1000.96,664.126 1001.83,662.441C1004.26,657.441 1014.25,656.071 1019.29,661.731C1019.78,662.31 1020.39,662.767 1021.09,663.067C1021.78,663.368 1022.54,663.502 1023.29,663.461C1029.36,663.281 1033.29,667.061 1033.6,671.541Z" style="fill:rgb(33,37,43);fill-rule:nonzero;"/>
        <path d="M995.45,699.78C995.383,699.093 995.132,698.436 994.722,697.88C994.312,697.324 993.76,696.889 993.122,696.623C992.485,696.356 991.788,696.267 991.104,696.365C990.42,696.463 989.776,696.745 989.24,697.18L989.16,697.26C985.16,700.72 987.75,711.58 996.56,710.63L995.45,699.78Z" style="fill:rgb(252,157,157);fill-rule:nonzero;"/>
        <path d="M1039.27,694L1039.19,693.92C1038.6,693.575 1037.92,693.395 1037.24,693.4C1036.55,693.406 1035.88,693.595 1035.3,693.949C1034.71,694.303 1034.23,694.808 1033.9,695.412C1033.58,696.015 1033.42,696.695 1033.45,697.38L1033.92,707.76C1042.81,707.49 1043.67,696.87 1039.27,694Z" style="fill:rgb(252,157,157);fill-rule:nonzero;"/>
        <path d="M996.56,701.12C996.574,701.39 996.483,701.656 996.306,701.861C996.129,702.066 995.879,702.194 995.61,702.22C995.35,702.255 995.087,702.194 994.87,702.049C994.652,701.903 994.496,701.683 994.43,701.43L993.43,694.43L996.34,694.51L996.56,701.12Z" style="fill:rgb(33,37,43);fill-rule:nonzero;"/>
        <path d="M1035.26,698.28C1035.27,698.559 1035.18,698.833 1034.99,699.041C1034.8,699.249 1034.54,699.374 1034.26,699.39C1034,699.423 1033.74,699.361 1033.52,699.216C1033.31,699.071 1033.15,698.852 1033.08,698.6L1032.08,691.6L1034.99,691.68L1035.26,698.28Z" style="fill:rgb(33,37,43);fill-rule:nonzero;"/>
        <path d="M1024.64,682.999C1024.25,683.041 1023.85,683.041 1023.46,682.999C1023.35,682.961 1023.26,682.888 1023.2,682.792C1023.14,682.696 1023.11,682.582 1023.12,682.469C1023.13,682.355 1023.17,682.248 1023.25,682.163C1023.33,682.078 1023.43,682.021 1023.54,681.999C1023.61,681.999 1028.26,682.239 1030.22,679.169C1030.29,679.054 1030.41,678.972 1030.54,678.942C1030.68,678.912 1030.82,678.936 1030.93,679.009C1031.05,679.082 1031.13,679.198 1031.16,679.331C1031.19,679.464 1031.16,679.604 1031.09,679.719C1030.34,680.721 1029.36,681.537 1028.24,682.105C1027.13,682.674 1025.89,682.979 1024.64,682.999Z" style="fill:rgb(252,157,157);fill-rule:nonzero;"/>
        <path d="M1007.17,707.92C1007.57,707.92 1007.95,707.803 1008.28,707.583C1008.61,707.363 1008.87,707.051 1009.02,706.685C1009.17,706.32 1009.21,705.918 1009.13,705.53C1009.05,705.142 1008.86,704.785 1008.58,704.506C1008.3,704.226 1007.95,704.036 1007.56,703.958C1007.17,703.881 1006.77,703.921 1006.4,704.072C1006.04,704.224 1005.73,704.48 1005.51,704.809C1005.29,705.138 1005.17,705.524 1005.17,705.92C1005.17,706.45 1005.38,706.959 1005.76,707.334C1006.13,707.709 1006.64,707.92 1007.17,707.92Z" style="fill:rgb(33,37,43);fill-rule:nonzero;"/>
        <path d="M1007.27,707.161C1007.4,707.158 1007.52,707.107 1007.61,707.018C1007.7,706.928 1007.75,706.807 1007.75,706.681C1007.75,706.555 1007.7,706.436 1007.61,706.348C1007.52,706.26 1007.4,706.211 1007.27,706.211C1007.15,706.211 1007.03,706.26 1006.94,706.349C1006.85,706.437 1006.8,706.556 1006.8,706.681C1006.8,706.806 1006.85,706.927 1006.94,707.017C1007.03,707.107 1007.15,707.158 1007.27,707.161Z" style="fill:white;fill-rule:nonzero;"/>
        <path d="M1022.91,706.74C1023.31,706.74 1023.69,706.623 1024.02,706.403C1024.35,706.183 1024.61,705.871 1024.76,705.506C1024.91,705.14 1024.95,704.738 1024.87,704.35C1024.79,703.962 1024.6,703.606 1024.32,703.326C1024.04,703.046 1023.69,702.856 1023.3,702.779C1022.91,702.702 1022.51,702.741 1022.14,702.892C1021.78,703.044 1021.47,703.3 1021.25,703.629C1021.03,703.958 1020.91,704.345 1020.91,704.74C1020.91,705.271 1021.12,705.779 1021.5,706.154C1021.87,706.53 1022.38,706.74 1022.91,706.74Z" style="fill:rgb(33,37,43);fill-rule:nonzero;"/>
        <path d="M1023,706.049C1023.09,706.047 1023.18,706.018 1023.26,705.965C1023.33,705.912 1023.39,705.838 1023.43,705.752C1023.46,705.666 1023.47,705.572 1023.45,705.482C1023.43,705.391 1023.38,705.308 1023.32,705.244C1023.25,705.179 1023.17,705.135 1023.08,705.118C1022.99,705.1 1022.89,705.11 1022.81,705.146C1022.72,705.182 1022.65,705.242 1022.6,705.319C1022.55,705.396 1022.52,705.487 1022.52,705.579C1022.52,705.705 1022.57,705.824 1022.66,705.912C1022.75,706 1022.87,706.049 1023,706.049Z" style="fill:white;fill-rule:nonzero;"/>
        <path d="M1016.06,713.469L1017.71,713.309C1017.87,713.294 1018.01,713.221 1018.11,713.104C1018.22,712.987 1018.27,712.835 1018.27,712.679C1018.26,712.525 1018.18,712.381 1018.06,712.279C1017.95,712.177 1017.8,712.123 1017.64,712.129L1015.98,712.289C1015.82,712.299 1015.65,712.276 1015.49,712.222C1015.34,712.168 1015.19,712.083 1015.07,711.973C1014.94,711.863 1014.84,711.73 1014.77,711.581C1014.7,711.432 1014.66,711.27 1014.65,711.104C1014.64,710.939 1014.66,710.773 1014.71,710.616C1014.77,710.46 1014.85,710.315 1014.96,710.191C1015.07,710.067 1015.21,709.966 1015.35,709.894C1015.5,709.821 1015.67,709.779 1015.83,709.769C1015.91,709.764 1015.98,709.743 1016.05,709.709C1016.12,709.674 1016.19,709.627 1016.24,709.568C1016.29,709.51 1016.33,709.442 1016.35,709.368C1016.38,709.294 1016.39,709.217 1016.38,709.139C1016.38,709.062 1016.36,708.986 1016.32,708.916C1016.29,708.847 1016.24,708.785 1016.18,708.734C1016.12,708.683 1016.05,708.644 1015.98,708.619C1015.91,708.594 1015.83,708.584 1015.75,708.589C1015.43,708.606 1015.12,708.688 1014.84,708.829C1014.55,708.971 1014.3,709.169 1014.09,709.411C1013.89,709.653 1013.73,709.935 1013.64,710.239C1013.55,710.543 1013.52,710.863 1013.55,711.179C1013.55,711.499 1013.62,711.815 1013.75,712.108C1013.88,712.4 1014.06,712.662 1014.3,712.878C1014.54,713.093 1014.82,713.257 1015.12,713.359C1015.42,713.461 1015.74,713.498 1016.06,713.469Z" style="fill-opacity:0.3;fill-rule:nonzero;"/>
        <path d="M1074.75,910.311L1056.12,906.881L1053.65,924.631L1071.91,926.631L1074.75,910.311Z" style="fill:rgb(252,157,157);fill-rule:nonzero;"/>
        <path d="M1056.46,924.83L1062.9,907.68L1062.65,916.55C1062.73,916.956 1062.93,917.328 1063.23,917.61C1063.54,917.893 1063.92,918.071 1064.33,918.12L1073.19,919.23L1071.91,926.61L1056.46,924.83Z" style="fill-opacity:0.15;fill-rule:nonzero;"/>
        <path d="M1087,938.49C1083.74,938.022 1080.75,936.414 1078.56,933.95L1075.98,931.05C1074.43,929.288 1072.45,927.961 1070.23,927.2C1068.42,926.566 1066.88,925.322 1065.88,923.68C1064.88,922.038 1064.49,920.101 1064.76,918.2L1064.76,917.83C1065.09,915.521 1066.32,913.436 1068.18,912.03C1070.04,910.624 1072.38,910.013 1074.69,910.33L1090.57,912.54L1087,938.49Z" style="fill:rgb(43,63,125);fill-rule:nonzero;"/>
        <path d="M1072.24,925.571C1072.11,925.571 1071.86,925.571 1071.83,925.391C1071.19,923.817 1070.97,922.101 1071.21,920.417C1071.44,918.733 1072.11,917.141 1073.16,915.801C1073.19,915.769 1073.22,915.743 1073.26,915.726C1073.3,915.708 1073.34,915.699 1073.39,915.699C1073.43,915.699 1073.47,915.708 1073.51,915.726C1073.55,915.743 1073.58,915.769 1073.61,915.801C1073.64,915.829 1073.66,915.863 1073.68,915.901C1073.7,915.939 1073.71,915.98 1073.71,916.021C1073.71,916.062 1073.7,916.103 1073.68,916.141C1073.66,916.179 1073.64,916.213 1073.61,916.241C1072.63,917.48 1071.99,918.96 1071.78,920.527C1071.56,922.094 1071.76,923.69 1072.37,925.151C1072.38,925.18 1072.39,925.213 1072.39,925.246C1072.39,925.279 1072.38,925.311 1072.37,925.341C1072.35,925.428 1072.3,925.508 1072.24,925.571Z" style="fill:white;fill-rule:nonzero;"/>
        <path d="M1074.35,926.88C1074.21,926.88 1073.96,926.88 1073.93,926.7C1073.29,925.125 1073.07,923.408 1073.31,921.724C1073.54,920.04 1074.22,918.448 1075.27,917.11C1075.3,917.079 1075.33,917.055 1075.37,917.039C1075.41,917.022 1075.45,917.014 1075.49,917.014C1075.53,917.014 1075.57,917.022 1075.61,917.039C1075.65,917.055 1075.68,917.079 1075.71,917.11C1075.74,917.139 1075.76,917.174 1075.78,917.212C1075.8,917.251 1075.81,917.293 1075.81,917.335C1075.81,917.377 1075.8,917.418 1075.78,917.457C1075.76,917.496 1075.74,917.531 1075.71,917.56C1074.73,918.798 1074.1,920.276 1073.88,921.841C1073.66,923.406 1073.86,925 1074.47,926.46C1074.49,926.525 1074.49,926.595 1074.47,926.66C1074.49,926.77 1074.41,926.89 1074.35,926.88Z" style="fill:white;fill-rule:nonzero;"/>
        <path d="M1076.55,928.4C1076.42,928.4 1076.17,928.4 1076.13,928.21C1075.49,926.635 1075.28,924.919 1075.51,923.235C1075.75,921.552 1076.42,919.96 1077.47,918.62C1077.5,918.592 1077.53,918.569 1077.57,918.553C1077.61,918.537 1077.65,918.529 1077.69,918.529C1077.73,918.529 1077.77,918.537 1077.81,918.553C1077.85,918.569 1077.88,918.592 1077.91,918.62C1077.94,918.649 1077.96,918.684 1077.98,918.721C1077.99,918.759 1078,918.8 1078,918.84C1078,918.881 1077.99,918.922 1077.98,918.959C1077.96,918.997 1077.94,919.032 1077.91,919.06C1076.93,920.3 1076.29,921.78 1076.08,923.347C1075.86,924.913 1076.06,926.51 1076.67,927.97C1076.68,928 1076.69,928.033 1076.69,928.065C1076.69,928.098 1076.68,928.131 1076.67,928.16C1076.66,928.253 1076.62,928.339 1076.55,928.4Z" style="fill:white;fill-rule:nonzero;"/>
        <path d="M1089.18,938.851L1087.07,938.561L1090.7,912.561L1092.81,912.851C1092.96,912.868 1093.11,912.915 1093.24,912.989C1093.37,913.063 1093.49,913.162 1093.58,913.281C1093.67,913.4 1093.74,913.537 1093.78,913.683C1093.82,913.828 1093.83,913.981 1093.81,914.131L1090.5,937.861C1090.45,938.165 1090.29,938.44 1090.04,938.625C1089.8,938.81 1089.49,938.891 1089.18,938.851Z" style="fill:rgb(63,66,73);fill-rule:nonzero;"/>
        <path d="M962.761,924.729L980.901,921.889L977.591,904.279L959.141,908.579L962.761,924.729Z" style="fill:rgb(252,157,157);fill-rule:nonzero;"/>
        <path d="M975.8,922.66L962.8,924.73L961.17,917.42L969.96,915.9C970.366,915.825 970.738,915.626 971.027,915.331C971.315,915.035 971.505,914.658 971.57,914.25L973.91,905.15L975.91,922.65L975.8,922.66Z" style="fill-opacity:0.15;fill-rule:nonzero;"/>
        <path d="M943.391,911.551L959.141,908.551C961.431,908.126 963.797,908.623 965.722,909.934C967.648,911.245 968.977,913.264 969.421,915.551L969.491,915.921C969.858,917.804 969.56,919.757 968.648,921.446C967.737,923.135 966.267,924.455 964.491,925.181C962.311,926.048 960.395,927.468 958.931,929.301L956.491,932.301C954.422,934.867 951.508,936.614 948.271,937.231L943.391,911.551Z" style="fill:rgb(43,63,125);fill-rule:nonzero;"/>
        <path d="M962.2,923.49C962.186,923.458 962.179,923.424 962.179,923.39C962.179,923.355 962.186,923.321 962.2,923.29C962.735,921.803 962.863,920.201 962.571,918.649C962.279,917.097 961.578,915.65 960.54,914.46C960.51,914.431 960.485,914.396 960.469,914.357C960.452,914.318 960.443,914.277 960.443,914.235C960.443,914.192 960.452,914.151 960.469,914.112C960.485,914.073 960.51,914.039 960.54,914.01C960.569,913.981 960.603,913.957 960.641,913.942C960.679,913.926 960.719,913.918 960.76,913.918C960.801,913.918 960.842,913.926 960.879,913.942C960.917,913.957 960.951,913.981 960.98,914.01C962.087,915.3 962.834,916.859 963.149,918.53C963.463,920.201 963.332,921.925 962.77,923.53C962.77,923.73 962.5,923.77 962.36,923.73C962.287,923.665 962.232,923.582 962.2,923.49Z" style="fill:white;fill-rule:nonzero;"/>
        <path d="M960.16,924.9C960.146,924.868 960.139,924.834 960.139,924.8C960.139,924.765 960.146,924.731 960.16,924.7C960.695,923.212 960.824,921.608 960.532,920.054C960.24,918.5 959.539,917.052 958.5,915.86C958.439,915.804 958.403,915.727 958.399,915.644C958.395,915.561 958.424,915.481 958.48,915.42C958.536,915.359 958.613,915.322 958.696,915.319C958.778,915.315 958.859,915.344 958.92,915.4C960.033,916.687 960.785,918.246 961.099,919.918C961.413,921.591 961.279,923.316 960.71,924.92C960.71,925.11 960.44,925.16 960.3,925.12C960.16,925.08 960.19,925 960.16,924.9Z" style="fill:white;fill-rule:nonzero;"/>
        <path d="M958,926.509C957.985,926.479 957.978,926.447 957.978,926.414C957.978,926.381 957.985,926.349 958,926.319C958.538,924.832 958.668,923.227 958.376,921.672C958.084,920.118 957.381,918.67 956.34,917.479C956.311,917.45 956.288,917.416 956.272,917.378C956.256,917.34 956.248,917.3 956.248,917.259C956.248,917.218 956.256,917.178 956.272,917.14C956.288,917.102 956.311,917.068 956.34,917.039C956.368,917.007 956.402,916.982 956.441,916.964C956.48,916.947 956.522,916.938 956.565,916.938C956.607,916.938 956.649,916.947 956.688,916.964C956.727,916.982 956.761,917.007 956.79,917.039C957.897,918.327 958.646,919.885 958.96,921.554C959.274,923.224 959.143,924.946 958.58,926.549C958.58,926.749 958.3,926.799 958.17,926.759C958.122,926.736 958.081,926.701 958.051,926.657C958.021,926.613 958.003,926.562 958,926.509Z" style="fill:white;fill-rule:nonzero;"/>
        <path d="M944.751,936.821L940.321,913.281C940.265,912.985 940.328,912.679 940.497,912.43C940.665,912.181 940.925,912.009 941.221,911.951L943.321,911.561L948.181,937.391L946.081,937.781C945.777,937.827 945.468,937.752 945.219,937.573C944.97,937.393 944.802,937.123 944.751,936.821Z" style="fill:rgb(63,66,73);fill-rule:nonzero;"/>
        <path d="M1028.57,697.179L1019.68,697.659L1018.5,697.729L1010.71,698.209L1010.64,698.209L1000.64,698.759C1000.25,698.781 999.872,698.88 999.522,699.05C999.172,699.22 998.859,699.458 998.602,699.75C998.345,700.043 998.149,700.383 998.025,700.752C997.902,701.121 997.852,701.511 997.881,701.899L998.041,704.179C998.097,705.23 998.36,706.259 998.814,707.208C999.269,708.157 999.905,709.007 1000.69,709.71C1001.47,710.413 1002.38,710.955 1003.38,711.305C1004.37,711.655 1005.42,711.806 1006.47,711.749C1007.52,711.693 1008.55,711.43 1009.5,710.976C1010.45,710.522 1011.3,709.885 1012,709.102C1012.7,708.319 1013.25,707.406 1013.6,706.414C1013.95,705.421 1014.1,704.37 1014.04,703.319L1013.88,701.039C1013.85,700.398 1013.6,699.787 1013.17,699.309L1016.24,699.149C1015.89,699.683 1015.72,700.32 1015.77,700.959L1015.93,703.239C1015.99,704.29 1016.25,705.319 1016.7,706.268C1017.16,707.217 1017.8,708.067 1018.58,708.77C1019.36,709.473 1020.27,710.015 1021.27,710.365C1022.26,710.715 1023.31,710.866 1024.36,710.809C1025.41,710.753 1026.44,710.49 1027.39,710.036C1028.34,709.582 1029.19,708.945 1029.89,708.162C1030.59,707.379 1031.14,706.466 1031.49,705.474C1031.84,704.481 1031.99,703.43 1031.93,702.379L1031.78,700.089C1031.77,699.685 1031.68,699.286 1031.51,698.919C1031.34,698.551 1031.1,698.221 1030.8,697.949C1030.5,697.677 1030.15,697.469 1029.76,697.337C1029.38,697.204 1028.97,697.151 1028.57,697.179ZM1012.68,700.999L1012.84,703.279C1012.89,705.039 1012.25,706.748 1011.06,708.045C1009.86,709.341 1008.22,710.123 1006.46,710.226C1004.7,710.329 1002.97,709.744 1001.64,708.595C1000.3,707.446 999.47,705.823 999.311,704.069L999.151,701.779C999.131,701.314 999.292,700.859 999.599,700.508C999.906,700.158 1000.34,699.94 1000.8,699.899L1010.8,699.349L1010.88,699.349C1011.11,699.328 1011.34,699.356 1011.56,699.429C1011.78,699.503 1011.98,699.621 1012.15,699.776C1012.32,699.932 1012.45,700.121 1012.54,700.331C1012.63,700.542 1012.68,700.769 1012.68,700.999ZM1030.68,702.259C1030.72,704.018 1030.08,705.724 1028.89,707.018C1027.7,708.311 1026.05,709.091 1024.29,709.192C1022.54,709.294 1020.81,708.708 1019.48,707.56C1018.14,706.412 1017.31,704.791 1017.15,703.039L1017,700.759C1016.98,700.293 1017.14,699.836 1017.45,699.485C1017.76,699.133 1018.19,698.913 1018.65,698.869L1019.83,698.799L1028.72,698.319C1029.19,698.3 1029.64,698.461 1030,698.771C1030.35,699.08 1030.56,699.513 1030.6,699.979L1030.68,702.259Z" style="fill:rgb(33,37,43);fill-rule:nonzero;"/>
        <path d="M1011,716.69L1021,715.98C1021.23,715.98 1021.47,716.221 1021.39,716.451C1021.08,717.573 1020.44,718.573 1019.54,719.316C1018.65,720.059 1017.54,720.508 1016.39,720.603C1015.23,720.698 1014.07,720.434 1013.06,719.847C1012.06,719.26 1011.26,718.378 1010.77,717.32L1010.77,717.24C1010.74,717.192 1010.71,717.135 1010.71,717.076C1010.7,717.016 1010.71,716.956 1010.73,716.901C1010.76,716.846 1010.79,716.798 1010.84,716.761C1010.89,716.724 1010.94,716.7 1011,716.69Z" style="fill:white;fill-rule:nonzero;"/>
        <path d="M993.25,705.439C993.098,705.433 992.953,705.375 992.838,705.275C992.724,705.175 992.647,705.039 992.62,704.889L992.47,703.629C992.437,702.61 992.043,701.636 991.36,700.879C991.232,700.766 991.083,700.68 990.922,700.627C990.76,700.574 990.589,700.554 990.42,700.569C990.263,700.593 990.102,700.558 989.971,700.469C989.839,700.38 989.746,700.244 989.71,700.089C989.68,699.934 989.713,699.774 989.801,699.643C989.889,699.512 990.025,699.421 990.18,699.389C990.846,699.313 991.517,699.48 992.07,699.859C992.563,700.308 992.958,700.855 993.23,701.464C993.502,702.073 993.645,702.732 993.65,703.399L993.8,704.659C993.809,704.832 993.76,705.003 993.66,705.145C993.56,705.286 993.416,705.39 993.25,705.439Z" style="fill-opacity:0.3;fill-rule:nonzero;"/>
        <path d="M1036.51,702.22C1036.67,702.204 1036.81,702.131 1036.91,702.014C1037.01,701.897 1037.07,701.745 1037.06,701.59L1037.06,700.33C1036.98,699.834 1037,699.327 1037.12,698.84C1037.24,698.353 1037.46,697.897 1037.77,697.5C1037.89,697.349 1038.04,697.229 1038.22,697.147C1038.39,697.066 1038.58,697.025 1038.77,697.03C1038.92,697.021 1039.07,696.963 1039.18,696.863C1039.29,696.763 1039.37,696.628 1039.4,696.48C1039.39,696.328 1039.34,696.183 1039.24,696.068C1039.14,695.954 1039,695.877 1038.85,695.85C1038.52,695.857 1038.2,695.929 1037.9,696.063C1037.6,696.197 1037.33,696.39 1037.11,696.63C1036.69,697.157 1036.39,697.765 1036.22,698.415C1036.04,699.066 1036.01,699.745 1036.11,700.41L1036.11,701.67C1035.89,702 1036.12,702.22 1036.51,702.22Z" style="fill-opacity:0.3;fill-rule:nonzero;"/>
        <path d="M1058.7,859.61L1057.9,860.17L1109.62,828.25C1112.23,826.469 1114.04,823.739 1114.67,820.643C1115.29,817.546 1114.69,814.327 1112.98,811.67L1110.38,807.4C1110.38,807.4 1117.09,818.86 1101.03,829.01L1055.75,857.82L1058.7,859.61Z" style="fill-opacity:0.15;fill-rule:nonzero;"/>
        <path d="M931.501,827.749C920.611,822.499 923.501,810.109 923.501,810.109L922.561,811.669C920.851,814.325 920.244,817.543 920.869,820.64C921.495,823.736 923.304,826.466 925.911,828.249L978.511,859.609L977.311,858.999L980.921,856.499L931.501,827.749Z" style="fill-opacity:0.15;fill-rule:nonzero;"/>
        <path d="M927.68,855.25L970.57,860.11L1065.38,860.11L1106.1,855.25L1099.01,898.06L944.96,898.06L929.17,856.48" style="fill:rgb(43,63,125);fill-rule:nonzero;"/>
        <path d="M927.68,855.25L970.57,860.11L1065.38,860.11L1106.1,855.25L1099.01,898.06L944.96,898.06L929.17,856.48" style="fill-opacity:0.3;fill-rule:nonzero;"/>
        <path d="M1017.05,889.131L1086.62,861.321C1093.74,858.473 1101.11,856.261 1108.62,854.711C1112.68,853.876 1116.91,854.429 1120.62,856.281C1125.81,858.873 1129.77,863.418 1131.62,868.921L1132,870.001C1133.55,874.654 1133.19,879.733 1131,884.121C1129.79,886.559 1128.07,888.701 1125.94,890.395C1123.81,892.089 1121.34,893.293 1118.69,893.921L977.049,927.641L971.189,905.001L1017.05,889.131Z" style="fill:rgb(43,63,125);fill-rule:nonzero;"/>
        <path d="M1131.05,884.131C1133.24,879.742 1133.6,874.664 1132.05,870.011L1131.69,868.921C1130.62,865.744 1128.84,862.854 1126.48,860.471C1126.48,860.471 1133.48,884.281 1108.33,889.721L1073.33,898.301C1068.17,899.569 1062.78,899.613 1057.6,898.431L1017.88,889.361L1031.38,914.741L1118.82,893.931C1121.45,893.292 1123.91,892.083 1126.02,890.39C1128.14,888.696 1129.85,886.56 1131.05,884.131Z" style="fill-opacity:0.2;fill-rule:nonzero;"/>
        <path d="M1017.8,889.361L948.229,861.551C941.105,858.703 933.743,856.491 926.229,854.941C922.166,854.104 917.94,854.657 914.229,856.511C909.031,859.103 905.074,863.653 903.229,869.161L902.869,870.241C901.319,874.894 901.678,879.973 903.869,884.361C905.077,886.8 906.807,888.944 908.936,890.639C911.065,892.334 913.542,893.54 916.189,894.171L1059.66,927.871L1063.73,905.271L1017.8,889.361Z" style="fill:rgb(43,63,125);fill-rule:nonzero;"/>
        <path d="M1064.37,882.281L972.07,882.281L967.67,822.281C967.64,821.847 967.699,821.411 967.844,821.001C967.989,820.591 968.217,820.215 968.513,819.896C968.809,819.577 969.168,819.323 969.566,819.148C969.965,818.974 970.395,818.883 970.83,818.881L1065.62,818.881C1066.05,818.883 1066.49,818.974 1066.88,819.148C1067.28,819.323 1067.64,819.577 1067.94,819.896C1068.23,820.215 1068.46,820.591 1068.61,821.001C1068.75,821.411 1068.81,821.847 1068.78,822.281L1064.37,882.281Z" style="fill:rgb(97,101,109);fill-rule:nonzero;"/>
        <path d="M1064.37,884L972.07,884L967.67,824C967.639,823.565 967.697,823.129 967.842,822.718C967.986,822.307 968.214,821.931 968.51,821.612C968.807,821.293 969.166,821.038 969.565,820.864C969.964,820.69 970.395,820.6 970.83,820.6L1065.62,820.6C1066.06,820.6 1066.49,820.69 1066.89,820.864C1067.29,821.038 1067.64,821.293 1067.94,821.612C1068.24,821.931 1068.46,822.307 1068.61,822.718C1068.75,823.129 1068.81,823.565 1068.78,824L1064.37,884Z" style="fill:rgb(134,138,145);fill-rule:nonzero;"/>
        <path d="M972.07,879.359L1064.4,879.359C1064.48,879.362 1064.56,879.396 1064.62,879.456C1064.68,879.515 1064.72,879.595 1064.72,879.679L1064.72,883.679C1064.72,883.763 1064.68,883.843 1064.62,883.903C1064.56,883.962 1064.48,883.997 1064.4,883.999L972.4,883.999C972.318,884 972.24,883.969 972.18,883.913C972.121,883.857 972.085,883.781 972.08,883.699L971.78,879.699C971.776,879.617 971.804,879.536 971.858,879.473C971.912,879.41 971.987,879.369 972.07,879.359Z" style="fill-opacity:0.4;fill-rule:nonzero;"/>
        <path d="M972.029,908.759L1007.15,920.479L1016.89,918.139L971.779,907.439L972.029,908.759Z" style="fill-opacity:0.2;fill-rule:nonzero;"/>
        <path d="M1060.57,924.42L937.2,891.64C934.2,890.84 931.2,890.15 928.2,889.49C903.43,884 904.05,867 904.05,867C903.73,867.7 903.45,868.41 903.2,869.14L902.84,870.22C901.289,874.873 901.649,879.952 903.84,884.34C905.048,886.779 906.777,888.923 908.907,890.618C911.036,892.314 913.512,893.519 916.16,894.15L1059.63,927.85L1060.57,924.42Z" style="fill-opacity:0.2;fill-rule:nonzero;"/>
        <path d="M1023.64,852.329C1022.93,852.329 1022.23,852.125 1021.63,851.74C1021.03,851.356 1020.55,850.807 1020.25,850.16C1019.95,849.512 1019.84,848.792 1019.94,848.085C1020.03,847.378 1020.33,846.713 1020.79,846.169C1019.47,845.618 1018.01,845.506 1016.62,845.85C1015.23,846.194 1013.99,846.976 1013.07,848.081C1012.16,849.185 1011.63,850.554 1011.56,851.983C1011.49,853.413 1011.88,854.828 1012.67,856.02C1013.46,857.212 1014.62,858.117 1015.96,858.601C1017.31,859.085 1018.78,859.123 1020.15,858.71C1021.52,858.296 1022.72,857.452 1023.57,856.303C1024.43,855.154 1024.89,853.761 1024.89,852.329L1024.89,852.109C1024.49,852.255 1024.07,852.33 1023.64,852.329Z" style="fill-opacity:0.4;fill-rule:nonzero;"/>
        <path d="M1098.5,786.099L1072.9,802.51L1075.74,806.938L1101.34,790.527L1098.5,786.099Z" style="fill:white;fill-rule:nonzero;"/>
        <path d="M933.885,790.33L958.959,807.537L961.935,803.2L936.862,785.993L933.885,790.33Z" style="fill:white;fill-rule:nonzero;"/>
        <path d="M1017.34,752.001C1014.89,752.002 1012.46,751.665 1010.1,751.001C1006.76,750.097 1003.64,748.538 1000.91,746.414C998.176,744.291 995.896,741.645 994.199,738.631L998.329,737.631C998.469,737.921 1001.94,744.381 1011.22,746.981C1016.18,748.297 1021.43,748.021 1026.22,746.191C1029.91,744.851 1035.07,742.771 1036.22,738.741L1040.29,739.351C1038.96,743.871 1034.19,747.721 1027.61,750.111C1024.32,751.333 1020.85,751.972 1017.34,752.001Z" style="fill:white;fill-rule:nonzero;"/>
        <path d="M1065.38,789.849L1060.4,783.949L1059.59,818.859L1065.62,818.859L1065.38,789.849Z" style="fill-opacity:0.3;fill-rule:nonzero;"/>
    </g>
</svg>
